<?xml version="1.0" encoding="utf-8" ?><svg xmlns="http://www.w3.org/2000/svg" xmlns:xlink="http://www.w3.org/1999/xlink" width="3181" height="1776" viewBox="0 0 3181 1776"><defs><linearGradient id="gradient_0" gradientUnits="userSpaceOnUse" x1="194.55362" y1="486.28024" x2="481.25763" y2="259.25269"><stop offset="0" stop-color="#3C78B5"/><stop offset="1" stop-color="#5C9FD6"/></linearGradient></defs><path fill="url(#gradient_0)" transform="matrix(2.31177 0 0 2.3125 0 -0.000244141)" d="M312.174 187.766C323.379 187.845 363.222 184.97 370.485 191.192C374.57 194.691 376.193 200.408 376.548 205.587C376.94 211.287 376.251 217.801 372.277 222.236C367.882 227.141 362.775 227.452 356.637 227.794L356.803 241.383C387.114 245.368 411.761 255.214 436.308 273.737L445.551 264.156C432.98 246.426 453.319 228.683 470.415 246.982C480.404 257.674 503.34 275.007 477.395 285.958C473.468 287.615 466.948 284.419 463.792 282.384C460.827 285.429 458.188 287.633 454.96 290.364C478.195 317.19 491.263 340.011 497.268 375.602C504.589 418.291 494.395 462.129 468.99 497.206C443.149 533.4 403.872 557.715 359.955 564.705C351.747 566.29 341.846 566.673 333.538 566.558C289.592 565.897 247.75 547.621 217.398 515.831C177.403 474.643 161.975 417.222 176.195 361.409C182.522 336.581 196.93 308.956 215.436 290.973L206.979 282.286C205.147 283.525 202.388 285.078 200.229 285.607C186.615 288.948 176.886 275.576 184.539 263.671C187.736 258.697 191.363 255.599 195.431 251.401C201.382 244.784 213.478 234.434 222.857 241.127C231.864 247.554 230.831 256.318 225.423 264.077C228.49 267.193 231.521 270.344 234.516 273.529C260.731 253.982 282.114 246.364 313.765 241.089C313.629 237.068 313.816 232.048 313.864 227.947C308.478 227.71 303.809 227.055 299.756 223.444C290.937 215.588 291.631 195.826 302.51 189.893C306.119 187.925 308.078 187.976 312.174 187.766ZM342.319 551.789C424.596 547.934 488.17 478.109 484.321 395.828C480.471 313.546 410.655 249.963 328.378 253.808C246.094 257.653 182.508 327.481 186.358 409.77C190.208 492.058 260.036 555.644 342.319 551.789Z"/><defs><linearGradient id="gradient_1" gradientUnits="userSpaceOnUse" x1="259.46872" y1="448.00598" x2="417.26385" y2="338.14972"><stop offset="0" stop-color="#417EBA"/><stop offset="1" stop-color="#5697D0"/></linearGradient></defs><path fill="url(#gradient_1)" transform="matrix(2.31177 0 0 2.3125 0 -0.000244141)" d="M289.975 322.099C290.691 321.993 291.411 321.916 292.134 321.866C309.222 320.695 322.927 328.078 335.418 338.829C353.547 323.383 369.694 318.519 393.351 324.415C391.332 326.937 385.621 332.206 383.063 334.679C358.178 334.056 350.454 339.989 335.465 358.728C326.226 347.922 319.827 339.671 305.219 335.884C293.45 332.922 280.987 334.785 270.598 341.056C240.202 359.124 240.573 396.076 257.242 423.647C258.356 412.435 259.124 394.065 267.91 386.272C271.507 383.082 282.572 377.882 287.431 375.351C288.879 359.935 286.185 343.968 312.925 359.549C313.492 359.88 314.166 361.727 313.673 361.974C309.145 364.238 309.722 371.406 309.279 376.043C306.162 378.971 305.789 379.773 303.632 383.556C301.08 382.779 298.315 382.071 295.727 381.361C299.809 385.32 304.07 387.587 308.483 391.404C309.199 393.229 312.513 403.479 312.541 405.103C312.789 419.413 327.292 442.438 327.172 455.289L334.173 459.35C341.539 451.382 342.669 449.774 352.922 446.857C342.335 439.042 347.716 441.006 348.722 430.209C348.815 429.208 348.906 428.276 349.081 427.298C349.949 426.024 350.392 425.733 351.812 425.119C362.971 420.296 364.609 431.32 373.526 433.633C379.947 435.298 374.195 443.625 373.527 447.862C373.454 448.325 374.467 451.136 374.735 451.828L373.857 452.325C366.014 451.408 368.619 442.732 368.895 436.774C367.472 437.625 367.09 439.619 366.32 441.493C363.226 444.167 362.183 444.788 358.556 446.712C370.467 452.959 370.508 457.013 371.701 469.874C402.398 447.693 439.176 400.717 418.926 361.529C416.074 356.01 412.407 351.969 408.286 347.453C410.96 344.568 414.344 341.355 417.178 338.538C424.674 343.808 431.72 356.161 434.324 364.897C450.652 419.67 400.282 467.393 359.067 494.645C351.962 499.342 343.271 505.434 335.183 507.961C323.794 503.308 300.62 487.636 291.208 480.004C265.108 458.608 237.214 429.452 233.322 394.275C229.267 357.624 252.883 325.804 289.975 322.099ZM335.355 494.167L341.69 490.232C341.721 483.339 344.425 468.376 343.993 465.03L343.073 464.147C338.635 464.56 336.21 468.096 331.573 464.816C321.631 457.781 315.43 457.073 318.651 444.047C313.674 437.087 309.445 430.465 306.164 422.538C305.607 421.191 304.679 418.87 303.773 417.799C303.868 423.384 304.52 428.695 304.987 434.242C306.072 447.134 305.645 461.01 304.358 473.834C313.178 480.392 325.576 489.467 335.355 494.167ZM268.986 440.446L269.834 440.432C270.163 438.237 269.668 414.873 269.102 413.021C266.143 420.119 264.357 433.66 268.986 440.446Z"/><defs><linearGradient id="gradient_2" gradientUnits="userSpaceOnUse" x1="231.94586" y1="494.61865" x2="438.65271" y2="309.35095"><stop offset="0" stop-color="#F19030"/><stop offset="1" stop-color="#F9B348"/></linearGradient></defs><path fill="url(#gradient_2)" transform="matrix(2.31177 0 0 2.3125 0 -0.000244141)" d="M323.51 264.333C360.193 262.842 396.139 270.335 424.299 295.596C418.818 297.165 413.303 298.466 407.765 299.809L401.022 296.776C398.728 300.717 396.45 306.395 390.987 304.754C388.162 300.384 391.682 296.055 394.072 292.391C375.315 283.435 361.894 279.851 341.307 278.655C341.327 284.202 342.107 288.466 336.069 291.185C328.31 291.057 329.335 284.077 329.627 278.602C311.372 278.97 293.474 283.731 277.449 292.483C279.9 296.656 283.357 301.531 278.49 305.261C272.885 305.919 271.289 300.894 269.292 296.739C253.607 305.449 238.083 320.889 228.962 336.312C233.033 338.455 237.987 340.704 236.285 346.122C232.263 349.773 227.735 346.498 223.816 344.354C215.528 360.53 210.824 378.303 210.028 396.462C213.697 396.335 222.559 396.14 222.452 402.403C222.339 409.011 214.678 408.678 209.819 408.717C210.793 427.173 215.223 444.432 224.422 460.499C228.285 457.921 233.185 454.254 236.943 458.966C237.861 464.509 232.897 466.513 228.884 468.831C239.808 484.605 252.373 498.889 269.058 508.759L269.606 507.644C271.567 503.683 272.001 501.739 276.302 500.291C278.86 500.579 277.97 500.112 279.647 502.009C280.962 506.545 278.843 508.955 276.572 513.181C295.928 522.602 307.525 526.475 329.334 528.426C329.498 523.09 328.774 518.872 334.396 516.195C341.992 516.091 341.395 523.259 341.403 528.656C361.572 526.358 375.87 522.651 393.973 513.472C391.674 509.704 386.619 501.168 393.99 499.972C398.606 501.376 399.581 504.483 401.837 508.65C419.438 496.087 429.695 487.53 441.641 468.734C437.568 466.542 431.552 463.878 433.764 458.298C438.191 454.844 442.736 458.378 446.836 460.695L449.049 455.391C456.74 436.437 459.02 428.416 461.163 408.299C455.743 408.415 450.984 409.259 448.604 403.095C449.217 395.763 455.577 396.637 460.895 397.152C460.228 378.267 455.21 361.157 446.33 344.526C442.433 346.729 436.295 351.185 432.616 346.512C432.248 340.998 438.211 338.412 442.236 336.132C440.998 334.019 438.69 330.877 437.245 328.772C438.282 322.761 439.529 316.582 440.658 310.568C484.141 361.454 487.489 430.992 448.131 485.116C425.306 516.504 388.342 537.795 349.861 541.859C312.818 545.76 275.769 534.546 247.106 510.758C218.65 487.573 199.456 453.942 195.753 417.261C191.693 380.065 202.994 342.823 227.039 314.157C251.556 284.355 285.439 268.006 323.51 264.333Z"/><path fill="#F5A63F" transform="matrix(2.31177 0 0 2.3125 0 -0.000244141)" d="M433.349 301.898L433.652 302.16C434.633 306.629 427.936 330.255 426.206 336.305C422.622 332.929 420.275 330.398 417.023 326.695C409.925 333.289 396.058 349.086 389.416 356.521L352.018 397.922C352.307 415.206 339.218 425.69 324.114 414.627C311.708 399.846 322.033 386.392 340.066 386.44C345.885 381.682 355.558 371.577 361.518 365.92L409.371 320.173C406.53 317.173 402.606 313.596 399.563 310.67C409.146 308.158 424.034 303.633 433.349 301.898ZM338.26 408.149C341.278 406.479 342.504 402.768 341.074 399.628C339.645 396.488 336.041 394.977 332.8 396.157C330.465 397.006 328.804 399.094 328.501 401.56C328.197 404.026 329.303 406.454 331.362 407.845C333.422 409.235 336.087 409.353 338.26 408.149Z"/><path fill="#F5A63F" transform="matrix(2.31177 0 0 2.3125 0 -0.000244141)" d="M308.352 198.404C315.743 198.164 360.528 196.602 363.953 200.012C366.063 202.113 365.979 206.604 365.926 209.391C365.859 212.895 365.205 214.865 362.647 217.309C361.588 217.381 360.528 217.427 359.468 217.445C352.361 217.535 310.051 219.138 306.665 215.525C304.592 213.312 304.891 208.162 305.065 205.316C305.257 202.174 306.011 200.504 308.352 198.404Z"/><path fill="#F5A63F" transform="matrix(2.31177 0 0 2.3125 0 -0.000244141)" d="M323.97 227.783L346.681 227.801L346.766 239.906C339.381 239.767 331.593 239.922 324.175 239.949L323.97 227.783Z"/><path fill="#F5A63F" transform="matrix(2.31177 0 0 2.3125 0 -0.000244141)" d="M453.049 249.671C453.91 249.647 456.852 249.539 457.727 250.194C464.436 255.221 474.635 263.936 478.57 271.234C479.32 272.624 477.823 274.479 477.103 275.649C476.655 275.725 474.565 276.037 474.201 275.803C466.936 271.145 458.42 262.048 453.033 255.225C451.63 253.448 452.625 251.239 453.049 249.671Z"/><path fill="#173C67" transform="matrix(2.31177 0 0 2.3125 0 -0.000244141)" d="M551.51 338.37C574.426 338.77 608.879 333.553 627 350.248C648.063 369.653 647.985 405.554 629.193 426.805C628.931 427.084 628.663 427.357 628.388 427.624C614.479 441.323 596.801 440.777 579.119 440.747L551.707 440.654L551.51 338.37ZM571.646 422.551C585.239 422.539 602.408 424.42 612.865 415.003C625.249 402.003 626.433 378.135 613.709 364.79C603.792 354.389 585.03 356.131 571.53 356.247C571.187 376.301 570.675 402.83 571.646 422.551Z"/><path fill="#173C67" transform="matrix(2.31177 0 0 2.3125 0 -0.000244141)" d="M808.845 335.071L827.535 335.259L827.57 440.707L809.428 440.713L809.498 431.837C797.381 443.357 785.123 445.577 769.37 439.7C745.934 427.562 739.671 397.306 755.82 376.946C761.745 369.396 770.45 364.536 779.986 363.453C791.747 362.194 800.141 365.833 808.982 373.041C808.836 360.385 808.79 347.728 808.845 335.071ZM791.713 424.628C803.77 422.343 811.672 410.69 809.333 398.642C806.994 386.594 795.306 378.744 783.27 381.137C771.309 383.515 763.52 395.114 765.844 407.085C768.168 419.057 779.731 426.899 791.713 424.628Z"/><path fill="#173C67" transform="matrix(2.31177 0 0 2.3125 0 -0.000244141)" d="M684.375 363.652C698.971 362.794 704.418 364.741 715.723 374.005C715.652 371.388 715.823 368.207 715.897 365.543C721.697 365.274 727.744 365.399 733.57 365.44L733.551 440.729L715.812 440.648C715.826 438.085 715.905 435.679 715.572 433.134L714.691 432.762L712.446 434.969C701.472 445.072 681.785 444.521 669.824 436.593C651.574 424.509 648.067 396.644 660.023 379.006C666.016 370.164 674.096 365.631 684.375 363.652ZM697.675 424.705C709.708 422.464 717.66 410.909 715.455 398.869C713.25 386.828 701.72 378.842 689.673 381.011C677.576 383.189 669.549 394.779 671.763 406.871C673.977 418.962 685.591 426.955 697.675 424.705Z"/><path fill="#173C67" transform="matrix(2.31177 0 0 2.3125 0 -0.000244141)" d="M1052.35 376.81C1053.12 375.878 1053.91 374.969 1054.74 374.083C1066.45 361.532 1086.78 359.175 1099.88 371.141C1110.8 381.12 1109.14 400.405 1109.07 414.101L1108.97 440.778L1095.36 440.758C1095.21 430.686 1096.24 396.813 1094.42 389.256C1093.69 386.156 1092.12 383.318 1089.88 381.057C1086.31 377.509 1081.31 375.765 1076.32 375.825C1071.27 375.887 1066.45 377.965 1062.93 381.598C1054.9 390.038 1056.73 406.152 1056.87 417.428L1056.89 440.767L1043.39 440.75C1043.03 424.821 1044.55 407.17 1042.68 391.369C1040.08 369.484 1008.06 372.072 1005.59 392.832C1003.78 408.106 1004.82 425.086 1004.73 440.742L991.185 440.743C990.574 416.427 991.091 389.831 991.051 365.342C995.343 365.225 1000.06 365.359 1004.4 365.4L1004.48 375.092C1011.63 367.663 1014.68 365.377 1024.67 363.693C1037.55 362.197 1045.01 366.999 1052.35 376.81Z"/><path fill="#173C67" transform="matrix(2.31177 0 0 2.3125 0 -0.000244141)" d="M1158.01 363.699C1178.28 361.409 1195.18 373.685 1198.63 394.023C1199.48 399.038 1199.33 403.388 1199.29 408.465L1137.65 408.474C1138.13 410.553 1139.32 414.027 1140.26 415.922C1143.43 422.314 1149.07 427.131 1155.88 429.252C1166 432.432 1174.59 430.06 1183.59 425.43L1190.43 420.688C1192.77 423.344 1195.42 427.369 1197.51 430.341C1181.94 444.087 1157.64 447.619 1140.14 435.465C1131.8 429.685 1126.16 420.783 1124.49 410.78C1120.28 386.683 1133.96 367.554 1158.01 363.699ZM1137.39 397.427C1147.11 397.271 1156.83 397.212 1166.54 397.251L1186.28 397.269C1182.58 381.407 1174.76 374.75 1158.21 375.641C1145.87 379.102 1140.34 384.738 1137.39 397.427Z"/><path fill="#173C67" transform="matrix(2.31177 0 0 2.3125 0 -0.000244141)" d="M866.219 338.032L943.301 337.939L943.263 350.698L911.938 350.711C911.396 369.316 911.83 390.088 911.815 408.861L911.841 440.748L897.671 440.754L897.772 350.656C887.33 350.56 876.735 350.685 866.28 350.72L866.219 338.032Z"/><path fill="#173C67" transform="matrix(2.31177 0 0 2.3125 0 -0.000244141)" d="M956.005 365.48C960.049 365.248 965.361 365.375 969.506 365.37C969.638 390.491 969.64 415.613 969.512 440.734L955.872 440.706C956.401 416.145 955.989 390.152 956.005 365.48Z"/><path fill="#173C67" transform="matrix(2.31177 0 0 2.3125 0 -0.000244141)" d="M960.132 336.267C963.391 335.248 966.945 336.061 969.436 338.395C971.928 340.729 972.971 344.223 972.168 347.541C971.364 350.859 968.837 353.488 965.554 354.423C960.567 355.843 955.365 352.99 953.882 348.021C952.398 343.053 955.184 337.814 960.132 336.267Z"/></svg>